<svg width="38" height="38" viewBox="0 0 38 38" fill="none" xmlns="http://www.w3.org/2000/svg">
<path d="M34.593 28.008C34.844 27.573 35 27.083 35 26.643V11.367C35 10.927 34.844 10.437 34.593 10.003L19 19.005L34.593 28.008Z" fill="#00599C"/>
<path d="M20.386 36.68L33.614 29.043C33.995 28.823 34.342 28.443 34.593 28.008L19 19.005L3.407 28.008C3.658 28.443 4.005 28.823 4.386 29.043L17.614 36.68C18.376 37.12 19.624 37.12 20.386 36.68Z" fill="#004482"/>
<path d="M34.593 10.003C34.342 9.567 33.995 9.188 33.614 8.968L20.386 1.33C19.624 0.89 18.376 0.89 17.614 1.33L4.386 8.968C3.624 9.408 3 10.488 3 11.368V26.643C3 27.083 3.156 27.573 3.407 28.008L19 19.005L34.593 10.003Z" fill="#659AD2"/>
<path d="M19 29.672C13.118 29.672 8.33301 24.887 8.33301 19.005C8.33301 13.123 13.118 8.338 19 8.338C22.795 8.338 26.335 10.381 28.237 13.668L23.621 16.34C23.1511 15.5302 22.4772 14.8577 21.6664 14.3896C20.8556 13.9215 19.9362 13.674 19 13.672C17.5862 13.6739 16.2308 14.2363 15.2311 15.236C14.2313 16.2358 13.6689 17.5912 13.667 19.005C13.6683 20.4192 14.2306 21.7751 15.2303 22.7752C16.2301 23.7754 17.5858 24.3381 19 24.34C19.9363 24.3379 20.8558 24.0903 21.6666 23.622C22.4774 23.1537 23.1513 22.481 23.621 21.671L28.237 24.342C27.2974 25.96 25.95 27.3035 24.3293 28.2386C22.7086 29.1736 20.8711 29.6685 19 29.672Z" fill="white"/>
<path d="M29.667 18.413H28.48V17.227H27.295V18.413H26.11V19.598H27.295V20.783H28.48V19.598H29.666L29.667 18.413ZM34.111 18.413H32.926V17.227H31.74V18.413H30.555V19.598H31.74V20.783H32.925V19.598H34.11L34.111 18.413Z" fill="white"/>
</svg>
