<svg width="482" height="482" viewBox="0 0 482 482" fill="none" xmlns="http://www.w3.org/2000/svg">
<path d="M409.354 74.3366L400.354 69.8366C399.898 67.7834 399.918 66.0371 400.285 64.5836H381.068C381.396 68.1923 379.32 72.3366 375.65 72.3366H363.354C356.576 74.5347 353.602 77.0412 349.854 83.8366C348.713 89.0571 348.737 92.2384 349.854 98.3366L358.354 107.837C370.331 108.652 373.854 111.837 373.854 122.837C377.91 127.712 380.735 130.183 387.354 133.837H394.854C402.077 130.523 406.805 127.767 409.354 119.337V74.3366Z" fill="#FF2E2E"/>
<path d="M72.8541 398.837L107.354 364.837L79.3541 353.837C68.3541 364.337 44.9541 387.437 45.3541 387.837C45.5066 387.989 48.3293 389.067 52.2256 390.555L52.2281 390.556C58.5506 392.971 67.6988 396.465 72.8541 398.837Z" fill="#E6F0FA"/>
<path d="M82.3541 408.837L104.854 386.837L116.354 414.837L93.8541 436.837L82.3541 408.837Z" fill="#E6F0FA"/>
<path d="M115.854 376.337L136.354 355.837L147.354 383.837L126.854 403.837L115.854 376.337Z" fill="#CFDFF8"/>
<path d="M90.3541 342.837C90.9399 342.837 93.413 340.263 95.4618 338.131C96.9105 336.623 98.147 335.337 98.3541 335.337C98.7541 335.337 117.187 342.337 126.354 345.837L117.854 354.837L90.3541 342.837Z" fill="#CFDFF8"/>
<path fill-rule="evenodd" clip-rule="evenodd" d="M72.8541 419.837L63.8541 427.337C55.8784 426.616 54.2234 424.404 55.3541 417.837L61.3541 409.337L26.3541 394.837C25.2942 391.383 25.3656 389.652 26.3541 386.837L94.8541 318.837L126.354 329.837L142.854 328.837L247.854 222.837L257.354 214.837L270.854 199.837L284.354 184.837L296.354 175.337L351.854 119.837C339.516 110.546 336.526 105.282 334.854 95.8366V86.3366C334.854 77.8366 346.854 60.3366 360.354 59.3366H375.65C379.133 59.3366 380.815 61.8009 381.068 64.5836C381.396 68.1923 379.32 72.3366 375.65 72.3366H363.354C356.576 74.5347 353.602 77.0412 349.854 83.8366C348.713 89.0571 348.737 92.2384 349.854 98.3366L358.354 107.837C370.331 108.652 373.854 111.837 373.854 122.837C377.91 127.712 380.735 130.183 387.354 133.837H394.854C402.077 130.523 406.805 127.767 409.354 119.337V74.3366L400.354 69.8366C399.898 67.7834 399.918 66.0371 400.285 64.5836C401.525 59.6657 406.729 58.0992 410.854 59.3366C420.854 62.3366 421.684 66.3109 422.854 74.3366V119.337C422.714 129 412.19 143.852 397.854 146.337H383.354C371.554 142.129 367.443 138.024 361.354 129.837L300.354 191.489L282.695 209.337L267.854 224.337L255.354 235.337L152.354 339.837L150.854 354.837C151.594 356.887 152.292 358.803 152.956 360.623C156.642 370.729 159.252 377.885 161.854 388.837L97.3541 452.837C91.9945 456.883 89.1787 456.183 84.3541 451.837L72.8541 419.837ZM72.8541 398.837L107.354 364.837L79.3541 353.837C68.3541 364.337 44.9541 387.437 45.3541 387.837C45.5066 387.989 48.3293 389.067 52.2256 390.555L52.2281 390.556C58.5506 392.971 67.6988 396.465 72.8541 398.837ZM95.4618 338.131C96.9105 336.623 98.147 335.337 98.3541 335.337C98.7541 335.337 117.187 342.337 126.354 345.837L117.854 354.837L90.3541 342.837C90.9399 342.837 93.413 340.263 95.4618 338.131ZM115.854 376.337L136.354 355.837L147.354 383.837L126.854 403.837L115.854 376.337ZM82.3541 408.837L104.854 386.837L116.354 414.837L93.8541 436.837L82.3541 408.837Z" fill="black"/>
</svg>
