<svg width="482" height="482" viewBox="0 0 482 482" fill="none" xmlns="http://www.w3.org/2000/svg">
<path d="M409.354 74.3366L400.354 69.8366C399.898 67.7834 399.918 66.0371 400.285 64.5836H381.068C381.396 68.1923 379.32 72.3366 375.65 72.3366H363.354C356.576 74.5347 353.602 77.0412 349.854 83.8366C348.713 89.0571 348.737 92.2384 349.854 98.3366L358.354 107.837C370.331 108.652 373.854 111.837 373.854 122.837C377.91 127.712 380.735 130.183 387.354 133.837H394.854C402.077 130.523 406.805 127.767 409.354 119.337V74.3366Z" fill="#FF2E2E"/>
<path d="M51.3541 99.8366H80.3541C84.7362 99.8366 86.868 104.037 86.5029 107.837H105.903C107.179 105.269 110.578 103.372 116.354 103.837L146.354 107.837C172.344 111.906 185.229 115.977 204.354 127.337L224.354 148.337L253.354 118.337C241.956 101.704 228.29 96.4131 197.854 90.3366C162.246 83.6162 142.819 82.4746 108.354 81.3366C91.3727 80.9692 78.0208 79.5636 53.3541 79.8366C42.9106 71.9119 38.307 66.7541 31.3541 56.8366C31.5422 45.7257 31.7963 39.6106 34.3541 30.3366C38.5281 24.1638 46.3541 25.3366 47.8541 33.8366L44.8541 53.3366C49.4831 55.7523 50.749 57.9887 53.3541 61.3366C57.8098 55.2495 59.9235 51.6096 62.3541 44.3366V30.3366C59.2315 26.2727 57.2822 24.2763 53.3541 21.3366C44.1543 14.6576 38.4088 13.2329 26.3541 17.8366C15.3541 22.0376 11.3541 42.8366 15.3541 61.3366C17.192 69.8366 37.8541 85.3366 51.3541 99.8366Z" fill="#FFC2C2"/>
<path d="M363.854 227.837C370.475 233.166 373.643 236.454 378.354 242.837C387.949 255.837 388.354 269.337 392.854 284.337L398.854 325.837C401.532 366.646 402.166 389.139 402.354 428.837L423.354 449.337H441.354L452.854 447.837C457.354 445.337 456.354 436.337 448.854 433.837C440.634 435.914 436.323 436.278 428.854 436.337L421.354 427.837C426.354 425.337 436.654 420.337 437.854 420.337H448.854C458.801 424.993 462.983 428.739 466.854 438.337V447.837C461.957 459.78 456.841 464.522 441.354 467.837H425.354C410.854 464.337 398.222 443.993 381.854 431.337C381.65 393.753 381.036 372.553 373.854 332.837C370.343 314.586 367.209 304.039 358.354 284.337C352.47 271.802 346.991 266.069 333.854 257.837L363.854 227.837Z" fill="#FFC2C2"/>
<path d="M230.854 160.337C241.854 180.337 242.854 201.837 257.354 214.837L270.854 199.837C261.854 185.337 260.354 161.337 247.354 144.05L230.854 160.337Z" fill="#A04F3A"/>
<path d="M287.354 237.337L321.354 250.337L336.354 235.863C319.354 222.837 290.854 219.837 282.695 209.337L267.854 224.337C274.526 230.828 278.886 233.539 287.354 237.337Z" fill="#A04F3A"/>
<path d="M284.354 184.837C277.995 164.854 272.687 152.298 261.854 128.837L247.354 144.05C260.354 161.337 261.854 185.337 270.854 199.837L284.354 184.837Z" fill="#87402C"/>
<path d="M322.354 205.837C320.148 204.513 319.791 201.438 320.854 198.715L300.354 191.489L282.695 209.337C290.854 219.837 319.354 222.837 336.354 235.863L349.854 222.837V218.837L322.354 205.837Z" fill="#87402C"/>
<path d="M72.8541 398.837L107.354 364.837L79.3541 353.837C68.3541 364.337 44.9541 387.437 45.3541 387.837C45.7541 388.237 64.5208 395.003 72.8541 398.837Z" fill="#E6F0FA"/>
<path d="M82.3541 408.837L104.854 386.837L116.354 414.837L93.8541 436.837L82.3541 408.837Z" fill="#E6F0FA"/>
<path d="M115.854 376.337L136.354 355.837L147.354 383.837L126.854 403.837L115.854 376.337Z" fill="#CFDFF8"/>
<path d="M90.3541 342.837C91.3541 342.837 97.8541 335.337 98.3541 335.337C98.7541 335.337 117.187 342.337 126.354 345.837L117.854 354.837L90.3541 342.837Z" fill="#CFDFF8"/>
<path fill-rule="evenodd" clip-rule="evenodd" d="M63.8541 427.337L72.8541 419.837L84.3541 451.837C89.1787 456.183 91.9945 456.883 97.3541 452.837L161.854 388.837C158.783 375.913 155.701 368.274 150.854 354.837L367.854 437.837C384.854 448.837 398.354 473.837 418.354 479.837C430.07 481.509 436.519 481.932 447.354 479.837C467.941 474.538 475.96 468.094 481.354 447.837C482.567 434.464 480.113 427.98 471.354 417.837C465.641 413.034 462.26 410.465 454.854 406.837C448.042 405.693 444.028 405.593 436.354 406.837L415.854 415.337L413.354 340.837L402.354 263.837C397.611 248.283 393.934 239.885 382.854 226.337C366.432 211.079 354.84 204.219 330.854 194.337C325.825 192.381 322.2 195.265 320.854 198.715C319.791 201.438 320.148 204.513 322.354 205.837L349.854 218.837V222.837L336.354 235.863L321.354 250.337L287.354 237.337C278.886 233.539 274.526 230.828 267.854 224.337L282.695 209.337L300.354 191.489L361.354 129.837C367.443 138.024 371.554 142.129 383.354 146.337H397.854C412.19 143.852 422.714 129 422.854 119.337V74.3366C421.684 66.3109 420.854 62.3366 410.854 59.3366C406.729 58.0992 401.525 59.6657 400.285 64.5836C399.918 66.0371 399.898 67.7834 400.354 69.8366L409.354 74.3366V119.337C406.805 127.767 402.077 130.523 394.854 133.837H387.354C380.735 130.183 377.91 127.712 373.854 122.837C373.854 111.837 370.331 108.652 358.354 107.837L349.854 98.3366C348.737 92.2384 348.713 89.0571 349.854 83.8366C353.602 77.0412 356.576 74.5347 363.354 72.3366H375.65C379.32 72.3366 381.396 68.1923 381.068 64.5836C380.815 61.8009 379.133 59.3366 375.65 59.3366H360.354C346.854 60.3366 334.854 77.8366 334.854 86.3366V95.8366C336.526 105.282 339.516 110.546 351.854 119.837L296.354 175.337L271.854 118.337C260.778 98.076 250.659 90.6857 227.854 82.3366C193.686 74.4513 172.757 71.7173 133.854 68.3366L66.8541 66.3366L75.8541 44.3366V28.8366C68.377 14.3422 62.5245 8.7165 49.3541 2.8366C41.1137 0.359648 36.0541 0.416114 26.3541 2.8366C9.35412 9.83661 3.51792 17.7054 0.354117 42.8366C-0.176092 49.0108 -0.0561957 52.3772 0.354117 58.3366C10.9205 89.3355 30.8541 92.8366 41.8541 110.337L126.354 329.837L94.8541 318.837L26.3541 386.837C25.3656 389.652 25.2942 391.383 26.3541 394.837L61.3541 409.337L55.3541 417.837C54.2234 424.404 55.8784 426.616 63.8541 427.337ZM80.3541 99.8366H51.3541C37.8541 85.3366 17.192 69.8366 15.3541 61.3366C11.3541 42.8366 15.3541 22.0376 26.3541 17.8366C38.4088 13.2329 44.1543 14.6576 53.3541 21.3366C57.2822 24.2763 59.2315 26.2727 62.3541 30.3366V44.3366C59.9235 51.6096 57.8098 55.2495 53.3541 61.3366C50.749 57.9887 49.4831 55.7523 44.8541 53.3366L47.8541 33.8366C46.3541 25.3366 38.5281 24.1638 34.3541 30.3366C31.7963 39.6106 31.5422 45.7257 31.3541 56.8366C38.307 66.7541 42.9106 71.9119 53.3541 79.8366C78.0208 79.5636 91.3727 80.9692 108.354 81.3366C142.819 82.4746 162.246 83.6162 197.854 90.3366C228.29 96.4131 241.956 101.704 253.354 118.337L224.354 148.337L204.354 127.337C185.229 115.977 172.344 111.906 146.354 107.837L116.354 103.837C110.578 103.372 107.179 105.269 105.903 107.837C103.924 111.822 107.057 117.424 114.354 118.337C134.098 120.517 144.21 121.984 159.354 125.337C176.271 129.205 183.995 131.893 193.854 137.837C210.354 148.337 219.147 161.257 224.354 180.337C232.854 201.337 235.354 214.837 247.854 222.837L142.854 328.837L58.3541 113.837H80.3541C84.1981 113.837 86.2015 110.973 86.5029 107.837C86.868 104.037 84.7362 99.8366 80.3541 99.8366ZM255.354 235.337L152.354 339.837L367.854 423.337V394.837C363.463 359.644 360.142 339.845 351.854 304.337C344.645 281.07 333.402 272.361 308.354 259.837C299.317 256.256 294.099 254.256 281.354 250.837C270.882 246.549 266.241 242.99 259.354 235.337H255.354ZM107.354 364.837L72.8541 398.837C64.5208 395.003 45.7541 388.237 45.3541 387.837C44.9541 387.437 68.3541 364.337 79.3541 353.837L107.354 364.837ZM98.3541 335.337C97.8541 335.337 91.3541 342.837 90.3541 342.837L117.854 354.837L126.354 345.837C117.187 342.337 98.7541 335.337 98.3541 335.337ZM136.354 355.837L115.854 376.337L126.854 403.837L147.354 383.837L136.354 355.837ZM104.854 386.837L82.3541 408.837L93.8541 436.837L116.354 414.837L104.854 386.837ZM261.854 128.837C272.687 152.298 277.995 164.854 284.354 184.837L270.854 199.837L257.354 214.837C242.854 201.837 241.854 180.337 230.854 160.337L247.354 144.05L261.854 128.837ZM378.354 242.837C373.643 236.454 370.475 233.166 363.854 227.837L333.854 257.837C346.991 266.069 352.47 271.802 358.354 284.337C367.209 304.039 370.343 314.586 373.854 332.837C381.036 372.553 381.65 393.753 381.854 431.337C398.222 443.993 410.854 464.337 425.354 467.837H441.354C456.841 464.522 461.957 459.78 466.854 447.837V438.337C462.983 428.739 458.801 424.993 448.854 420.337H437.854C436.654 420.337 426.354 425.337 421.354 427.837L428.854 436.337C436.323 436.278 440.634 435.914 448.854 433.837C456.354 436.337 457.354 445.337 452.854 447.837L441.354 449.337H423.354L402.354 428.837C402.166 389.139 401.532 366.646 398.854 325.837L392.854 284.337C388.354 269.337 387.949 255.837 378.354 242.837Z" fill="black"/>
</svg>
