<svg width="448" height="448" viewBox="0 0 448 448" fill="none" xmlns="http://www.w3.org/2000/svg">
<path d="M234 79.0566C257.289 55.4847 271.161 44.542 299.5 35.0566C328.958 27.7793 345.439 27.4771 374.5 45.0566C409.5 68.5566 422 119.057 413 167.557C399.679 207.717 386.228 227.924 356 261.557C331.309 288.943 315.92 303.243 286 327.057C266.735 343.134 254.5 353.557 237 361.557L230 363.557C225.057 364.035 222.223 364.075 217 363.557L209.5 361.557C191.637 351.93 183.163 345.282 168.5 333.057C145.469 314.892 133.765 304.017 113 284.557L104.5 277.557C89.5 274.057 79.5 284.557 84 298.057C106.872 323.403 121.677 335.642 148.5 357.057C171.074 375.892 184.05 385.326 209.5 394.057L217 395.057H230L240.5 393.057C261.749 386.859 279.724 372.786 313 345.557C342.51 320.335 358.193 305.255 384.5 276.557C409.188 248.244 424.5 226.557 438 191.057C451.12 156.557 449.856 129.417 441 94.0566C432.028 59.8181 421.12 44.0894 394 20.5566C362.982 0.130445 343.148 -2.36145 305.5 1.55662C284.537 6.33422 273.578 10.9452 255 21.5566C241.605 29.9298 235.042 35.1377 224.5 45.0566H222.5C213.388 36.3687 207.719 31.8626 196.5 24.5566C172.231 9.46423 157.735 4.25723 130.5 0.0566205H105.5C74.1568 4.98851 59.2112 13.0786 36.5 35.5566C20.8237 53.8885 15.0681 64.9634 8 85.5566C3.21018 100.873 1.61679 110.299 0 128.057V152.557C1.70846 169.691 4.44634 180.028 12 199.557L30 233.557C33.3629 236.478 35.2204 237.467 38.5 238.557H45.5C51.7044 237.03 54.3125 234.567 57.5 227.557V219.557C50.3873 206.764 46.5293 199.611 41 187.057C34.5985 173.344 32.8708 164.586 30.5 148.557C30.3342 139.369 30.811 134.55 31 127.057C35.1693 97.732 39.1622 84.2242 51.5 66.0566C67.7703 46.1883 77.6826 39.3785 96.5 33.5566C114.484 29.5562 124.356 29.3728 141.5 33.5566C163.558 40.406 174.724 45.9468 192 59.5566L213.5 79.0566C221.341 84.3354 225.83 84.1608 234 79.0566Z" fill="#FE3636"/>
<path d="M299.5 35.0566C271.161 44.542 257.289 55.4847 234 79.0566C225.48 126.035 229.521 149.926 283.5 179.557C340.887 198.459 357.308 216.164 356 261.557C386.228 227.924 399.679 207.717 413 167.557C422 119.057 409.5 68.5566 374.5 45.0566C345.439 27.4771 328.958 27.7793 299.5 35.0566Z" fill="#FFFAB2"/>
<path d="M286 327.057C315.92 303.243 331.309 288.943 356 261.557C357.308 216.164 340.887 198.459 283.5 179.557C229.521 149.926 225.48 126.035 234 79.0566C225.83 84.1608 221.341 84.3354 213.5 79.0566L192 59.5566C174.724 45.9468 163.558 40.406 141.5 33.5566C124.356 29.3728 114.484 29.5562 96.5 33.5566C77.6826 39.3785 67.7703 46.1883 51.5 66.0566C39.1622 84.2242 35.1693 97.732 31 127.057C30.811 134.55 30.3342 139.369 30.5 148.557C32.8708 164.586 34.5985 173.344 41 187.057C46.5293 199.611 50.3873 206.764 57.5 219.557C73.9237 247.621 84.314 260.041 104.5 277.557L113 284.557C133.765 304.017 145.469 314.892 168.5 333.057C183.163 345.282 191.637 351.93 209.5 361.557L217 363.557C222.223 364.075 225.057 364.035 230 363.557L237 361.557C254.5 353.557 266.735 343.134 286 327.057Z" fill="#FFC2C2"/>
</svg>
