<svg width="438" height="438" viewBox="0 0 438 438" fill="none" xmlns="http://www.w3.org/2000/svg">
<g clip-path="url(#clip0_10_2)">
<path fill-rule="evenodd" clip-rule="evenodd" d="M29 57.8176V176H58V205H87V234H116.5V263H146V293H175V322H204.5V351H233.5V322H263V293H291.5V264.5H321.5V235H350.5V205H379V176.5H408.5V59H379V29H262.5V59.5H234.5V89H204.5V59.5H177V29H58.5V57.8176H29ZM81 147.5H111V118.5H140.5V88H81V147.5Z" fill="#A80000"/>
<path fill-rule="evenodd" clip-rule="evenodd" d="M29 176H0V57.8176H29V176ZM58 205H29V176H58V205ZM87 234H58V205H87V234ZM116.5 263H87V234H116.5V263ZM146 293H116.5V263H146V293ZM175 322H146V293H175V322ZM204.5 351H175V322H204.5V351ZM233.5 351V380.5H204.5V351H233.5ZM263 322V351H233.5V322H263ZM291.5 293V322H263V293H291.5ZM321.5 264.5V293H291.5V264.5H321.5ZM350.5 235V264.5H321.5V235H350.5ZM379 205V235H350.5V205H379ZM408.5 176.5V205H379V176.5H408.5ZM408.5 59H438.5V176.5H408.5V59ZM379 29H408.5V59H379V29ZM262.5 29V0H379V29H262.5ZM234.5 59.5V29H262.5V59.5H234.5ZM204.5 59.5H234.5V89H204.5V59.5ZM177 29H204.5V59.5H177V29ZM58.5 29V0.5H177V29H58.5ZM58.5 29H29V57.8176H58.5V29Z" fill="white"/>
<path d="M111 147.5H81V88H140.5V118.5H111V147.5Z" fill="#FFC2C2"/>
</g>
<defs>
<clipPath id="clip0_10_2">
<rect width="438" height="438" fill="white"/>
</clipPath>
</defs>
</svg>
